<svg width="48" height="48" viewBox="0 0 48 48" xmlns="http://www.w3.org/2000/svg">
  <defs>
    <!-- Cyberpunk Gradients -->
    <radialGradient id="faceGradient" cx="50%" cy="40%" r="60%">
      <stop offset="0%" style="stop-color:#e2e8f0;stop-opacity:1" />
      <stop offset="70%" style="stop-color:#94a3b8;stop-opacity:1" />
      <stop offset="100%" style="stop-color:#475569;stop-opacity:1" />
    </radialGradient>
    
    <linearGradient id="cyberGlow" x1="0%" y1="0%" x2="100%" y2="100%">
      <stop offset="0%" style="stop-color:#00ffff;stop-opacity:0.8" />
      <stop offset="50%" style="stop-color:#0080ff;stop-opacity:0.6" />
      <stop offset="100%" style="stop-color:#8000ff;stop-opacity:0.4" />
    </linearGradient>
    
    <radialGradient id="eyeGlow" cx="50%" cy="50%" r="50%">
      <stop offset="0%" style="stop-color:#00ffff;stop-opacity:1" />
      <stop offset="70%" style="stop-color:#0080ff;stop-opacity:0.8" />
      <stop offset="100%" style="stop-color:#004080;stop-opacity:0.6" />
    </radialGradient>
    
    <!-- Animated Pulse -->
    <animate id="pulse" attributeName="opacity" values="0.6;1;0.6" dur="2s" repeatCount="indefinite"/>
  </defs>
  
  <!-- Background Aura -->
  <circle cx="24" cy="24" r="22" fill="url(#cyberGlow)" opacity="0.3">
    <animateTransform attributeName="transform" type="rotate" values="0 24 24;360 24 24" dur="8s" repeatCount="indefinite"/>
  </circle>
  
  <!-- Head Shape -->
  <ellipse cx="24" cy="20" rx="12" ry="14" fill="url(#faceGradient)" stroke="#00ffff" stroke-width="0.5" opacity="0.9"/>
  
  <!-- Cyberpunk Hair/Head Covering -->
  <path d="M 12 12 Q 24 8 36 12 Q 36 18 24 16 Q 12 18 12 12" fill="#1e293b" stroke="#00ffff" stroke-width="0.5" opacity="0.8"/>
  
  <!-- Neural Implants -->
  <circle cx="16" cy="16" r="1.5" fill="#00ffff" opacity="0.8">
    <use href="#pulse"/>
  </circle>
  <circle cx="32" cy="16" r="1.5" fill="#00ffff" opacity="0.8">
    <use href="#pulse"/>
  </circle>
  
  <!-- Cybernetic Eyes -->
  <ellipse cx="20" cy="20" rx="2" ry="2.5" fill="url(#eyeGlow)">
    <use href="#pulse"/>
  </ellipse>
  <ellipse cx="28" cy="20" rx="2" ry="2.5" fill="url(#eyeGlow)">
    <use href="#pulse"/>
  </ellipse>
  
  <!-- Eye Pupils -->
  <circle cx="20" cy="20" r="1" fill="#000080" opacity="0.8"/>
  <circle cx="28" cy="20" r="1" fill="#000080" opacity="0.8"/>
  
  <!-- Facial Hair -->
  <ellipse cx="24" cy="26" rx="4" ry="2" fill="#374151" opacity="0.7"/>
  <path d="M 20 24 Q 24 28 28 24" stroke="#374151" stroke-width="1.5" fill="none" opacity="0.7"/>
  
  <!-- Tech Tattoos/Markings -->
  <path d="M 14 22 L 18 22 M 30 22 L 34 22" stroke="#00ffff" stroke-width="0.5" opacity="0.6">
    <use href="#pulse"/>
  </path>
  
  <!-- Holographic Overlay -->
  <rect x="12" y="12" width="24" height="24" fill="none" stroke="#00ffff" stroke-width="0.3" opacity="0.4" stroke-dasharray="2,2">
    <animateTransform attributeName="transform" type="rotate" values="0 24 24;360 24 24" dur="12s" repeatCount="indefinite"/>
  </rect>
  
  <!-- Body Outline -->
  <ellipse cx="24" cy="38" rx="8" ry="6" fill="url(#faceGradient)" stroke="#00ffff" stroke-width="0.5" opacity="0.7"/>
  
  <!-- Tech Chest Piece -->
  <rect x="20" y="35" width="8" height="4" rx="2" fill="#1e293b" stroke="#00ffff" stroke-width="0.5" opacity="0.8"/>
  <circle cx="24" cy="37" r="1" fill="#00ffff" opacity="0.9">
    <use href="#pulse"/>
  </circle>
  
  <!-- Data Streams -->
  <path d="M 10 10 Q 24 5 38 10" stroke="#00ffff" stroke-width="0.3" opacity="0.5" fill="none" stroke-dasharray="1,1">
    <animate attributeName="stroke-dashoffset" values="0;10" dur="1s" repeatCount="indefinite"/>
  </path>
  <path d="M 10 38 Q 24 43 38 38" stroke="#00ffff" stroke-width="0.3" opacity="0.5" fill="none" stroke-dasharray="1,1">
    <animate attributeName="stroke-dashoffset" values="10;0" dur="1s" repeatCount="indefinite"/>
  </path>
</svg>
